<?xml version="1.0" encoding="utf-8"?>
<svg width="201px" height="151px" viewBox="0 0 201 151" version="1.1" xmlns:xlink="http://www.w3.org/1999/xlink" xmlns="http://www.w3.org/2000/svg">
  <path d="M0 0L200 0L200 150L0 150L0 0Z" transform="translate(0.5 0.5)" id="fond" fill="#FFFFFF" fill-rule="evenodd" stroke="#808080" stroke-width="1" />
  <g id="devises" transform="translate(20.5 94.5)">
    <path d="M49.5 3.54001C49.94 3.54001 50.32 3.88001 50.12 4.66001L48.1 5.20001C48.42 4.24001 49.02 3.54001 49.5 3.54001M50.62 6.82001L50.22 6.82001C49.72 7.42001 49.16 7.90001 48.62 7.90001C48.06 7.90001 47.78 7.56001 47.78 6.82001C47.78 6.52001 47.82 6.20001 47.88 5.92001L51.14 4.84001C51.78 3.32001 51.02 2.66 50.12 2.66C48.58 2.66 46.82 5.36001 46.82 7.52001C46.82 8.54001 47.3 9.10001 48.06 9.10001C48.94 9.08001 49.86 8.22001 50.62 6.82001M50.1 1.94L51.96 0.24L51.96 2.27374e-14L50.72 2.27374e-14L49.62 1.94L50.1 1.94ZM43.14 3.58001L44.22 3.58001L42.5 8.30001C42.34 8.70001 42.56 9.10001 42.98 9.10001C44.2 9.10001 45.66 8.06001 46.22 6.58001L45.92 6.58001C45.48 7.20001 44.52 7.88001 43.8 8.00001L45.38 3.58001L47 3.58001L47.2 2.9L45.62 2.9L46.22 1.2L45.6 1.2L44.48 2.9L43.14 3.08L43.14 3.58001L43.14 3.58001ZM42.02 3.36001C42.16 2.92 41.86 2.68 41.64 2.68C40.7 2.68 39.58 3.52001 39.12 4.72001L39.42 4.72001C39.72 4.28001 40.24 3.80001 40.74 3.72001L38.94 8.42001C38.78 8.86001 39.1 9.10001 39.32 9.10001C40.22 9.10001 41.26 8.24001 41.72 7.06001L41.4 7.06001C41.1 7.50001 40.58 7.98001 40.08 8.06001L42.02 3.36001ZM42.2 1.48C42.6 1.48 42.94 1.16 42.94 0.740001C42.94 0.34 42.6 0 42.2 0C41.78 0 41.46 0.34 41.46 0.740001C41.46 1.14 41.8 1.48 42.2 1.48M33.46 3.98001C33.74 3.98001 33.9 4.42001 33.46 5.38001L32.18 8.22001C31.94 8.76001 32.2 9.10001 32.72 9.10001C33.04 9.10001 33.18 9.02001 33.32 8.68001L34.58 5.36001C35.16 4.66001 36.24 3.90001 36.7 3.90001C37.04 3.90001 37 4.18001 36.78 4.60001L34.86 8.30001C34.68 8.66001 34.92 9.10001 35.34 9.10001C36.28 9.10001 37.4 8.26001 37.86 7.06001L37.56 7.06001C37.26 7.50001 36.74 7.98001 36.24 8.06001L37.9 4.72001C38.12 4.30001 38.22 3.90001 38.22 3.58001C38.22 3.04 37.92 2.68 37.34 2.68C36.52 2.68 35.82 3.60001 34.84 4.74001L34.84 3.86001C34.84 3.24001 34.64 2.68 34.08 2.68C33.42 2.68 32.82 3.70001 32.36 4.72001L32.66 4.72001C32.94 4.24001 33.22 3.98001 33.46 3.98001M32.16 4.10001C32.38 3.34001 32.26 2.66 31.68 2.66C30.94 2.66 30.72 3.16 29.98 4.72001L29.98 3.84001C29.98 3.22001 29.78 2.66 29.22 2.66C28.56 2.66 27.96 3.68001 27.5 4.70001L27.8 4.70001C28.12 4.24001 28.42 3.96001 28.66 3.96001C28.94 3.96001 29.1 4.40001 28.66 5.36001L27.38 8.20001C27.14 8.74001 27.4 9.08001 27.92 9.08001C28.24 9.08001 28.38 9.00001 28.52 8.66001L29.78 5.34001C30.14 4.90001 30.46 4.52001 30.86 4.10001L32.16 4.10001L32.16 4.10001ZM25.22 3.54001C25.66 3.54001 26.04 3.88001 25.84 4.66001L23.82 5.20001C24.14 4.24001 24.74 3.54001 25.22 3.54001M26.34 6.82001L25.94 6.82001C25.44 7.42001 24.88 7.90001 24.34 7.90001C23.78 7.90001 23.5 7.56001 23.5 6.82001C23.5 6.52001 23.54 6.20001 23.6 5.92001L26.86 4.84001C27.5 3.32001 26.74 2.66 25.84 2.66C24.3 2.66 22.54 5.36001 22.54 7.52001C22.54 8.54001 23.02 9.10001 23.78 9.10001C24.66 9.08001 25.58 8.22001 26.34 6.82001M18.86 3.58001L19.94 3.58001L18.22 8.30001C18.06 8.70001 18.28 9.10001 18.7 9.10001C19.92 9.10001 21.38 8.06001 21.94 6.58001L21.64 6.58001C21.2 7.20001 20.24 7.88001 19.52 8.00001L21.1 3.58001L22.72 3.58001L22.92 2.9L21.34 2.9L21.94 1.2L21.32 1.2L20.2 2.9L18.86 3.08L18.86 3.58001L18.86 3.58001ZM13.14 7.24001C13.14 5.78001 14.76 3.82001 15.66 3.82001C15.86 3.82001 16.06 3.84001 16.22 3.90001L15.28 6.42001C14.74 7.08001 13.9 7.88001 13.5 7.88001C13.28 7.88001 13.14 7.68001 13.14 7.24001M18.1 2.4L17.6 2.36L17.04 2.92L16.94 2.92C14.56 2.92 12.02 5.88001 12.02 8.20001C12.02 8.74001 12.32 9.10001 12.9 9.10001C13.6 9.10001 14.28 8.10001 15.04 7.04001L15 7.42001C14.9 8.50001 15.24 9.10001 15.8 9.10001C16.46 9.10001 17.06 8.08001 17.52 7.06001L17.22 7.06001C16.9 7.52001 16.6 7.80001 16.36 7.80001C16.12 7.80001 15.94 7.36001 16.36 6.40001L18.1 2.4ZM13.02 4.10001C13.24 3.34001 13.12 2.66 12.54 2.66C11.8 2.66 11.58 3.16 10.84 4.72001L10.84 3.84001C10.84 3.22001 10.64 2.66 10.08 2.66C9.42 2.66 8.82 3.68001 8.36 4.70001L8.66 4.70001C8.98 4.24001 9.28 3.96001 9.5 3.96001C9.78 3.96001 9.94 4.40001 9.5 5.36001L8.22 8.22001C7.98 8.76001 8.24 9.10001 8.76 9.10001C9.08 9.10001 9.22 9.02001 9.36 8.68001L10.62 5.36001C10.98 4.92001 11.3 4.54001 11.7 4.12001L13.02 4.12001L13.02 4.10001ZM4.66 8.86001L4.78 8.50001C3.2 8.20001 3 8.20001 3.64 6.50001L4.22 4.90001L5.48 4.90001C6.26 4.90001 6.26 5.24001 6.16 6.10001L6.6 6.10001L7.64 3.26L7.2 3.26C6.82 3.94001 6.5 4.46001 5.66 4.46001L4.4 4.46001L5.26 2.12C5.56 1.28 5.7 1.12 6.78 1.12L7.06 1.12C8.16 1.12 8.28 1.42 8.28 2.58L8.72 2.58L9.08 0.640001L3.02 0.640001L2.9 1C4.16 1.26 4.28 1.38 3.7 3L2.4 6.48001C1.8 8.10001 1.56 8.22001 0.12 8.48001L0 8.86001L4.66 8.86001Z" transform="translate(0 27.460022)" id="Shape" fill="#000000" fill-rule="evenodd" stroke="none" />
    <path d="M34.8 5.12001C35.24 5.12001 35.62 5.46001 35.42 6.22001L33.4 6.76001C33.74 5.82001 34.34 5.12001 34.8 5.12001M35.92 8.38001L35.52 8.38001C35.02 8.98001 34.46 9.46001 33.92 9.46001C33.36 9.46001 33.08 9.12001 33.08 8.38001C33.08 8.08001 33.12 7.76001 33.18 7.48001L36.46 6.40001C37.1 4.88001 36.32 4.22 35.44 4.22C33.9 4.22 32.14 6.92001 32.14 9.08001C32.14 10.1 32.62 10.66 33.38 10.66C34.26 10.66 35.18 9.80001 35.92 8.38001M35.4 3.52L37.26 1.82L37.26 1.58L36.02 1.58L34.92 3.52L35.4 3.52ZM28.46 5.16001L29.54 5.16001L27.82 9.88001C27.66 10.28 27.88 10.68 28.3 10.68C29.52 10.68 30.98 9.64001 31.54 8.16001L31.24 8.16001C30.8 8.78001 29.84 9.46001 29.12 9.58001L30.7 5.16001L32.32 5.16001L32.52 4.48001L30.94 4.48001L31.54 2.78L30.92 2.78L29.8 4.48001L28.46 4.66001L28.46 5.16001L28.46 5.16001ZM27.34 4.92001C27.46 4.48 27.18 4.24 26.94 4.24C26 4.24 24.88 5.10001 24.42 6.28001L24.72 6.28001C25.02 5.84001 25.54 5.36001 26.04 5.28001L24.24 9.98001C24.08 10.42 24.4 10.66 24.62 10.66C25.52 10.66 26.56 9.80001 27.02 8.62001L26.72 8.62001C26.42 9.06001 25.9 9.54001 25.4 9.62001L27.34 4.92001ZM27.52 3.06C27.92 3.06 28.26 2.72 28.26 2.32C28.26 1.92 27.92 1.58 27.52 1.58C27.1 1.58 26.78 1.92 26.78 2.32C26.78 2.72 27.12 3.06 27.52 3.06M21.74 9.62001L24.72 1.7L24.62 1.58L22.56 1.82L22.56 2.06L22.96 2.36C23.32 2.64 23.2 2.9 22.88 3.78L20.6 9.86001C20.42 10.22 20.66 10.66 21.08 10.66C22.02 10.66 23.02 9.80001 23.48 8.62001L23.18 8.62001C22.86 9.06001 22.22 9.54001 21.74 9.62001M15.64 8.82001C15.64 7.36001 17.26 5.40001 18.16 5.40001C18.36 5.40001 18.54 5.42001 18.72 5.48001L17.78 8.00001C17.24 8.66001 16.4 9.46001 16.02 9.46001C15.78 9.46001 15.64 9.26001 15.64 8.82001M20.6 3.98L20.1 3.94L19.54 4.5L19.44 4.5C17.06 4.5 14.52 7.46001 14.52 9.78001C14.52 10.32 14.82 10.68 15.4 10.68C16.1 10.68 16.78 9.68001 17.54 8.62001L17.5 9.00001C17.4 10.08 17.74 10.68 18.3 10.68C18.96 10.68 19.56 9.66001 20.02 8.64001L19.72 8.64001C19.4 9.10001 19.1 9.38001 18.86 9.38001C18.62 9.38001 18.44 8.94001 18.86 7.98001L20.6 3.98ZM9.06 11.82C9.06 11.2 9.66 10.8 10.52 10.46C10.8 10.6 11.22 10.76 11.8 10.94C12.7 11.24 13.04 11.36 13.04 11.62C13.04 12.2 12.22 12.64 10.72 12.64C9.6 12.64 9.06 12.4 9.06 11.82M11.52 8.00001C11.12 8.00001 10.98 7.66001 10.98 7.30001C10.98 6.14001 11.54 4.70001 12.44 4.70001C12.84 4.70001 12.98 5.04001 12.98 5.40001C12.96 6.58001 12.4 8.00001 11.52 8.00001M14.06 11.24C14.06 10.48 13.38 10.22 12.28 9.88001C11.34 9.60001 10.92 9.52001 10.92 9.20001C10.92 8.96001 11.12 8.66001 11.52 8.44001C13.08 8.36001 14.06 6.96001 14.06 5.74001C14.06 5.52001 14.02 5.32001 13.96 5.14001L15.02 5.14001L15.22 4.46L13.42 4.46C13.18 4.3 12.88 4.22 12.54 4.22C10.9 4.22 9.86 5.66001 9.86 6.92001C9.86 7.74001 10.34 8.30001 11.08 8.40001C10.32 8.76001 9.88 9.14001 9.88 9.62001C9.88 9.90001 9.98 10.1 10.22 10.26C8.46 10.78 7.74 11.42 7.74 12.2C7.74 13.02 8.82 13.36 10.08 13.36C12.26 13.38 14.06 12.22 14.06 11.24M5.94 6.46001C6.72 6.46001 6.74 6.80001 6.62 7.66001L7.06 7.66001L8.1 4.82001L7.66 4.82001C7.28 5.50001 6.96 6.02001 6.12 6.02001L4.4 6.02001L5.24 3.68C5.54 2.84 5.68 2.68 6.76 2.68L7.52 2.68C8.62 2.68 8.74 2.98 8.74 4.14L9.18 4.14L9.54 2.2L3.02 2.2L2.9 2.56C4.16 2.82 4.28 2.94 3.7 4.56001L2.4 8.06001C1.8 9.68001 1.56 9.80001 0.1 10.06L0 10.44L7.24 10.44L8.54 8.38001L8.04 8.38001C7.2 9.20001 6.36 9.96001 4.72 9.96001C2.8 9.96001 2.96 9.86001 3.6 8.08001L4.2 6.48001L5.94 6.48001L5.94 6.46001ZM6.88 1.58L8.74 0.24L8.74 0L7.5 0L6.4 1.6L6.88 1.6L6.88 1.58Z" transform="translate(0 12.159973)" id="Shape" fill="#000000" fill-rule="evenodd" stroke="none" />
    <path d="M34.58 3.56C35.02 3.56 35.4 3.9 35.2 4.66001L33.18 5.20001C33.5 4.26 34.1 3.56 34.58 3.56M35.7 6.82001L35.3 6.82001C34.8 7.42001 34.24 7.90001 33.7 7.90001C33.14 7.90001 32.86 7.56001 32.86 6.82001C32.86 6.52001 32.9 6.20001 32.96 5.92001L36.22 4.84001C36.86 3.32 36.08 2.66 35.2 2.66C33.66 2.66 31.9 5.36001 31.9 7.52001C31.9 8.54001 32.38 9.08001 33.14 9.08001C34.02 9.10001 34.94 8.24001 35.7 6.82001M35.18 1.96L37.04 0.26L37.04 0.02L35.8 0.02L34.7 1.96L35.18 1.96ZM28.22 3.6L29.3 3.6L27.58 8.32001C27.42 8.72001 27.64 9.12001 28.06 9.12001C29.28 9.12001 30.74 8.08001 31.3 6.60001L31 6.60001C30.56 7.22001 29.6 7.90001 28.88 8.02001L30.46 3.6L32.08 3.6L32.28 2.92L30.7 2.92L31.3 1.22L30.68 1.22L29.56 2.92L28.22 3.1L28.22 3.6L28.22 3.6ZM27.66 4.12001C27.88 3.36 27.76 2.68 27.18 2.68C26.44 2.68 26.22 3.18 25.48 4.74001L25.48 3.86C25.48 3.24 25.28 2.68 24.72 2.68C24.06 2.68 23.46 3.7 23 4.72001L23.3 4.72001C23.62 4.26001 23.92 3.98 24.14 3.98C24.42 3.98 24.58 4.42001 24.14 5.38001L22.86 8.22001C22.62 8.76001 22.88 9.10001 23.4 9.10001C23.72 9.10001 23.86 9.02001 24 8.68001L25.26 5.36001C25.62 4.92001 25.94 4.54001 26.34 4.12001L27.66 4.12001ZM20.7 3.56C21.14 3.56 21.52 3.9 21.32 4.66001L19.3 5.20001C19.64 4.26 20.22 3.56 20.7 3.56M21.82 6.82001L21.42 6.82001C20.92 7.42001 20.36 7.90001 19.82 7.90001C19.26 7.90001 18.98 7.56001 18.98 6.82001C18.98 6.52001 19.02 6.20001 19.08 5.92001L22.34 4.84001C22.98 3.32 22.22 2.66 21.32 2.66C19.78 2.66 18.02 5.36001 18.02 7.52001C18.02 8.54001 18.5 9.08001 19.26 9.08001C20.14 9.10001 21.06 8.24001 21.82 6.82001M14.2 8.14001C13.88 8.14001 13.42 7.84001 13.42 7.58001C13.42 7.50001 13.56 7.14001 13.74 6.68001L14.26 5.28001C14.82 4.60001 15.7 3.88 16.18 3.88C16.48 3.88 16.7 4.06001 16.7 4.50001C16.72 5.80001 15.5 8.14001 14.2 8.14001M17.84 4.00001C17.84 3.04 17.6 2.68 16.92 2.68C16.08 2.68 15.3 3.58 14.52 4.66001L16.2 0.16L16.1 0.02L14.04 0.26L14.04 0.500001L14.44 0.800001C14.8 1.08 14.68 1.36 14.36 2.22L12.54 6.98001C12.38 7.38001 12.2 7.86001 12.2 7.98001C12.2 8.54001 12.96 9.08001 13.66 9.08001C15.22 9.10001 17.84 6.22001 17.84 4.00001M11.72 3.36C11.84 2.92 11.56 2.68 11.32 2.68C10.38 2.68 9.26 3.54 8.8 4.72001L9.1 4.72001C9.4 4.28001 9.92 3.8 10.42 3.72L8.62 8.42001C8.46 8.86001 8.78 9.10001 9.02 9.10001C9.92 9.10001 10.96 8.24001 11.42 7.06001L11.12 7.06001C10.82 7.50001 10.3 7.98001 9.8 8.06001L11.72 3.36ZM11.92 1.48C12.32 1.48 12.66 1.14 12.66 0.740001C12.66 0.34 12.32 0 11.92 0C11.5 0 11.18 0.34 11.18 0.740001C11.18 1.16 11.5 1.48 11.92 1.48M7.32 0.600001L3.02 0.600001L2.9 0.960001C4.16 1.22 4.28 1.34 3.7 2.96L2.4 6.50001C1.8 8.12001 1.56 8.24001 0.12 8.50001L0 8.86001L6.54 8.86001L7.96 6.34001L7.46 6.34001C6.64 7.24001 5.72 8.38001 4.26 8.38001C3.16 8.38001 3 8.18001 3.62 6.50001L4.9 2.98C5.5 1.36 5.74 1.24 7.2 0.980001L7.32 0.600001Z" id="Shape" fill="#000000" fill-rule="evenodd" stroke="none" />
  </g>
  <g id="Intitulé-officiel" transform="translate(20.5 46.5)">
    <g id="MINISTÈRE" fill="#1E1E1E">
      <path d="M81.38 2.3L78.78 2.3L76.2 -0.400002L79.12 -0.400002L81.38 2.3ZM55.18 17.9C52.82 17.9 51.24 17.04 50 15.56L52.06 13.66C52.9 14.74 54.02 15.38 55.16 15.38C56.28 15.38 56.96 14.78 56.96 13.78C56.96 11.2 50.6 11.9 50.6 7.16C50.6 4.94 52.44 3.1 55.12 3.1C57.22 3.1 58.82 4.04 60.02 5.46L57.94 7.34C57.12 6.28 56.2 5.58 55.14 5.58C54.14 5.58 53.48 6.22 53.48 7.06C53.48 9.6 59.84 8.88 59.84 13.68C59.8 16.32 57.76 17.9 55.18 17.9ZM2.06 17.5L4.9 17.5L4.9 7.46L8.02 12.7L10.02 12.7L13.14 7.46L13.14 17.5L15.98 17.5L15.98 3.5L12.44 3.5L9.02 9.38L5.6 3.5L2.06 3.5L2.06 17.5ZM20.18 17.5L23.02 17.5L23.02 3.5L20.18 3.5L20.18 17.5ZM30.08 17.5L27.24 17.5L27.24 3.5L30.88 3.5L37.14 13.62L37.14 3.5L39.98 3.5L39.98 17.5L36.34 17.5L30.08 7.38L30.08 17.5ZM44.2 17.5L47.04 17.5L47.04 3.5L44.2 3.5L44.2 17.5ZM61.68 6.08L66 6.08L66 17.5L68.84 17.5L68.84 6.08L73.16 6.08L73.16 3.5L61.68 3.5L61.68 6.08ZM84.12 17.5L75.96 17.5L75.96 3.5L84.12 3.5L84.12 5.86L78.8 5.86L78.8 9.18L83.32 9.18L83.32 11.54L78.8 11.54L78.8 15.14L84.12 15.14L84.12 17.5ZM87.72 17.5L90.56 17.5L90.56 11.84L92.02 11.84L95.76 17.5L99.1 17.5L94.72 11.3C96.16 10.64 96.98 9.38 96.98 7.68C96.98 5.08 95.08 3.5 92 3.5L87.72 3.5L87.72 17.5ZM109.36 17.5L101.2 17.5L101.2 3.5L109.36 3.5L109.36 5.86L104.04 5.86L104.04 9.18L108.56 9.18L108.56 11.54L104.04 11.54L104.04 15.14L109.36 15.14L109.36 17.5ZM92.16 5.86C93.36 5.86 94.06 6.58 94.06 7.64C94.06 8.78 93.36 9.48 92.16 9.48L90.56 9.48L90.56 5.86L92.16 5.86Z" />
    </g>
    <g id="DE-L'INTÉRIEUR" fill="#1E1E1E">
      <path d="M93.86 23.302L96.46 20.602L93.54 20.602L91.28 23.302L93.86 23.302ZM2.06 38.502L7.56 38.502C12 38.502 15 35.282 15 31.502C15 27.722 12 24.502 7.56 24.502L2.06 24.502L2.06 38.502ZM18.04 38.502L26.2 38.502L26.2 36.142L20.88 36.142L20.88 32.542L25.4 32.542L25.4 30.182L20.88 30.182L20.88 26.862L26.2 26.862L26.2 24.502L18.04 24.502L18.04 38.502ZM43.36 38.502L35.2 38.502L35.2 24.502L38.04 24.502L38.04 35.922L43.36 35.922L43.36 38.502ZM47.92 30.262L48.22 24.502L45.38 24.502L45.7 30.262L47.92 30.262ZM54.5 38.502L51.66 38.502L51.66 24.502L54.5 24.502L54.5 38.502ZM58.72 38.502L61.56 38.502L61.56 28.382L67.82 38.502L71.46 38.502L71.46 24.502L68.62 24.502L68.62 34.622L62.36 24.502L58.72 24.502L58.72 38.502ZM78.56 27.082L74.24 27.082L74.24 24.502L85.72 24.502L85.72 27.082L81.4 27.082L81.4 38.502L78.56 38.502L78.56 27.082ZM88.52 38.502L96.68 38.502L96.68 36.142L91.36 36.142L91.36 32.542L95.88 32.542L95.88 30.182L91.36 30.182L91.36 26.862L96.68 26.862L96.68 24.502L88.52 24.502L88.52 38.502ZM103.12 38.502L100.28 38.502L100.28 24.502L104.56 24.502C107.64 24.502 109.54 26.082 109.54 28.682C109.54 30.382 108.72 31.642 107.28 32.302L111.66 38.502L108.32 38.502L104.58 32.842L103.12 32.842L103.12 38.502ZM113.76 38.502L116.6 38.502L116.6 24.502L113.76 24.502L113.76 38.502ZM128.98 38.502L120.82 38.502L120.82 24.502L128.98 24.502L128.98 26.862L123.66 26.862L123.66 30.182L128.18 30.182L128.18 32.542L123.66 32.542L123.66 36.142L128.98 36.142L128.98 38.502ZM140.68 33.262C140.68 35.142 139.6 36.242 137.86 36.242C136.08 36.242 135.02 35.142 135.02 33.262L135.02 24.502L132.18 24.502L132.18 33.022C132.18 36.702 134.34 38.902 137.84 38.902C141.36 38.902 143.52 36.702 143.52 33.022L143.52 24.502L140.68 24.502L140.68 33.262ZM150.18 38.502L147.34 38.502L147.34 24.502L151.62 24.502C154.7 24.502 156.6 26.082 156.6 28.682C156.6 30.382 155.78 31.642 154.34 32.302L158.72 38.502L155.38 38.502L151.64 32.842L150.18 32.842L150.18 38.502ZM106.62 28.642C106.62 27.582 105.92 26.862 104.72 26.862L103.12 26.862L103.12 30.482L104.72 30.482C105.92 30.482 106.62 29.782 106.62 28.642ZM153.68 28.642C153.68 27.582 152.98 26.862 151.78 26.862L150.18 26.862L150.18 30.482L151.78 30.482C152.98 30.482 153.68 29.782 153.68 28.642ZM7.6 27.082C10.2 27.082 12.08 29.002 12.08 31.502C12.08 33.982 10.2 35.922 7.6 35.922L4.9 35.922L4.9 27.082L7.6 27.082Z" />
    </g>
  </g>
  <g id="MARIANNE-20" transform="translate(20.5 20.5)">
    <g id="Tracé" transform="matrix(1 0 0 1 0 -8.526513E-14)">
      <path d="M22.7378 17.6409C22.9525 17.4262 23.1692 17.1957 23.3846 16.9644C23.7695 16.5066 24.1906 16.0767 24.6404 15.6779C24.7705 15.5598 24.908 15.4501 25.052 15.3493C25.0898 15.3115 25.0898 15.2358 25.1276 15.1981C24.9387 15.2737 24.8252 15.4249 24.6363 15.5004C24.5985 15.5004 24.5607 15.4627 24.5985 15.4249L25.0023 15.122C24.994 15.1225 24.9852 15.1225 24.9764 15.1225C24.9387 15.1225 24.9387 15.0848 24.9387 15.0469C24.4514 14.972 24.0758 15.3058 23.7378 15.6061L23.7292 15.6138C23.6788 15.6391 23.6284 15.6138 23.5892 15.5942C23.5697 15.5844 23.5529 15.576 23.5403 15.576C22.9735 15.7651 22.5576 16.2564 21.9909 16.4831L21.9909 16.4075C21.764 16.4831 21.5439 16.6202 21.3106 16.672C21.0548 16.7288 20.8204 16.7216 20.5913 16.7145C20.5157 16.7121 20.4407 16.7098 20.3656 16.7098C19.9035 16.766 19.4447 16.8477 18.9915 16.9545C18.9785 16.9579 18.965 16.9609 18.952 16.9644C18.7068 17.0305 18.4704 17.1257 18.2478 17.248C18.239 17.2527 18.2304 17.2578 18.222 17.263C18.2032 17.2866 18.1847 17.3092 18.1673 17.3284C18.096 17.4195 18.008 17.4962 17.9081 17.5545C17.6759 17.6727 17.4859 17.8785 17.2814 18.0456C17.2636 18.058 17.2425 18.0647 17.2208 18.0648C17.0181 18.2592 16.8181 18.4564 16.6121 18.6474C16.5761 18.6641 16.5358 18.6689 16.4968 18.6612C16.5072 18.6457 16.5146 18.6338 16.5218 18.6218Q16.5696 18.5418 16.6186 18.4624C16.6552 18.4033 16.6925 18.3448 16.7307 18.2869C16.7822 18.2087 16.8352 18.1314 16.8916 18.0568C16.9047 18.0426 16.9041 18.0206 16.8902 18.0072C16.876 17.9937 16.857 17.9866 16.8374 17.9874C17.0307 17.8066 17.2435 17.6478 17.4718 17.514C17.4466 17.5163 17.4099 17.4961 17.429 17.4695C17.453 17.4361 17.4718 17.4005 17.4942 17.3665C17.4985 17.3553 17.5024 17.344 17.5063 17.3328C17.4968 17.3223 17.4872 17.313 17.4777 17.303C17.4155 17.3399 17.3561 17.3814 17.3001 17.4271C17.2727 17.4518 17.2471 17.4843 17.2209 17.5176C17.1607 17.5942 17.0973 17.6748 17.0017 17.6737C16.9823 17.6734 16.963 17.6706 16.9444 17.6655C16.9304 17.6636 16.9169 17.659 16.9047 17.652C16.9063 17.6491 16.9079 17.6462 16.9096 17.6433L16.9152 17.6327L16.9207 17.6229L16.9387 17.5904C16.9447 17.5798 16.9506 17.5686 16.9567 17.5578C16.9616 17.5491 16.9663 17.5402 16.9712 17.5316C16.9802 17.5156 16.9889 17.4999 16.998 17.4837C17.0044 17.4722 17.0113 17.4609 17.0178 17.4495C17.034 17.4215 17.0503 17.3938 17.0666 17.3661C17.0744 17.3527 17.0821 17.3393 17.0899 17.326C17.1034 17.3031 17.1165 17.28 17.1301 17.2573C17.1379 17.2449 17.1391 17.2296 17.1335 17.2161C17.1278 17.2027 17.116 17.1928 17.1017 17.1897C17.172 17.098 17.26 17.0213 17.3605 16.9642L17.3491 16.9642C17.4938 16.8913 17.6385 16.8028 17.7831 16.7214C17.8042 16.7034 17.8246 16.6851 17.8456 16.6674C17.6329 16.7393 17.4306 16.8391 17.244 16.9641C17.2216 16.9729 17.2003 16.9845 17.1807 16.9986C17.1452 17.0063 17.1085 16.9928 17.0864 16.9641C17.0803 16.9561 17.0771 16.9463 17.0773 16.9363C17.1151 16.8607 17.2286 16.8228 17.3042 16.7473C17.3418 16.7473 17.3796 16.7473 17.3796 16.7851C18.5891 15.8402 20.252 16.0673 21.6503 15.5757L21.9904 15.349C22.1794 15.2734 22.3305 15.0845 22.5572 14.971C22.8626 14.7614 23.0889 14.4553 23.1997 14.1019C23.1957 14.0732 23.1825 14.0466 23.162 14.0262C22.687 14.5383 22.1238 14.9608 21.4991 15.2734C20.7054 15.6892 19.8362 15.6135 19.0047 15.7273C19.0426 15.6518 19.1182 15.6518 19.1937 15.6518C19.1937 15.5383 19.2693 15.5006 19.3449 15.425L19.4584 15.425C19.4961 15.425 19.4961 15.3494 19.5338 15.3494C19.6094 15.3494 19.7229 15.3116 19.6851 15.3116C19.6275 15.2348 19.5407 15.2652 19.4444 15.299C19.3511 15.3316 19.249 15.3674 19.156 15.3116C19.2316 15.2359 19.1937 15.1226 19.2693 15.0849L19.4205 15.0849C19.4284 15.0276 19.455 14.9744 19.4961 14.9337C20.0629 14.5935 20.592 14.329 21.1215 14.0266C21.0775 14.0266 21.0393 14.0436 21.0023 14.0601C20.9438 14.0862 20.8886 14.1108 20.8192 14.0645C20.8948 14.0645 20.8192 13.951 20.8948 13.951C21.3105 13.8377 21.6506 13.611 22.0663 13.4598C22.0145 13.4598 21.967 13.4732 21.921 13.4861C21.8329 13.5109 21.7499 13.5343 21.6506 13.4598C21.7261 13.4219 21.7639 13.3464 21.8773 13.3464L21.8773 13.233C21.8773 13.1952 21.9152 13.1952 21.953 13.1952C21.9243 13.1912 21.8977 13.178 21.8773 13.1574C21.9152 13.0819 22.0285 13.1196 22.1041 13.0441C22.0663 13.0441 21.9907 13.0441 21.9907 13.0063C22.1041 12.8551 22.293 12.8172 22.4821 12.7795C22.4442 12.7039 22.3308 12.7795 22.3308 12.7039C22.3308 12.6661 22.3686 12.6661 22.4064 12.6661L22.3308 12.6661C22.2722 12.6368 22.2818 12.5848 22.289 12.5453C22.2911 12.5339 22.293 12.5235 22.293 12.515C22.5197 12.2505 22.5197 11.9103 22.6331 11.6079C22.5953 11.6079 22.5575 11.6079 22.5575 11.5701C22.1797 11.9859 21.5749 12.137 21.0081 12.2878L20.8192 12.2878C20.6098 12.37 20.3749 12.3562 20.1766 12.25C20.0255 12.1744 19.9499 12.061 19.7988 11.9476C19.5032 11.7589 19.186 11.6065 18.8539 11.4938C17.9155 11.187 16.9307 11.0464 15.9439 11.0782C16.3596 10.8513 16.8182 10.8321 17.2667 10.7002C17.3606 10.6726 17.4538 10.6441 17.5464 10.6158C18.0876 10.4505 18.6132 10.29 19.194 10.3222C19.1172 10.2966 19.023 10.3057 18.9349 10.3143C18.8931 10.3183 18.8526 10.3222 18.8161 10.3222C18.3905 10.2918 17.9648 10.3837 17.5192 10.4799C17.411 10.5033 17.3016 10.5269 17.1907 10.5491C16.8128 10.6246 16.473 10.7758 16.0948 10.8513C16.0077 10.8804 15.9373 10.9317 15.8686 10.9818C15.7586 11.0621 15.653 11.1392 15.49 11.1158L15.49 11.0025C15.868 10.5486 16.3215 10.0955 16.9262 10.0577C17.5011 9.96193 18.0491 10.0281 18.6157 10.0965C18.7195 10.109 18.8239 10.1216 18.9293 10.1333C19.4138 10.1848 19.8936 10.2732 20.3647 10.3978C20.5537 10.3978 20.5915 10.7002 20.7428 10.738C20.9695 10.8136 21.1966 10.738 21.4229 10.8891C21.4229 10.8639 21.4187 10.8387 21.4145 10.8136C21.4061 10.7631 21.3977 10.7128 21.4229 10.6624C21.5082 10.577 21.6056 10.6001 21.7014 10.6228C21.7754 10.6403 21.8485 10.6575 21.9143 10.6246C22.1194 10.4964 21.9244 10.2986 21.7306 10.102C21.6388 10.0089 21.5472 9.91599 21.4986 9.83091C21.5026 9.80229 21.5158 9.77575 21.5363 9.75534C21.8387 10.0199 22.0655 10.3222 22.4433 10.5112C22.6323 10.5867 23.0858 10.7002 23.0102 10.4735C22.8213 10.0577 22.4433 9.71756 22.141 9.3396L22.141 9.18898C22.0655 9.18898 22.0655 9.1512 22.0277 9.11341L22.0277 8.96227C21.8764 8.8867 21.9143 8.73545 21.8387 8.6222C21.7253 8.43316 21.8009 8.16835 21.7253 7.94184C21.6571 7.73226 21.6066 7.51736 21.5741 7.29938C21.4608 6.65692 21.3102 6.09003 21.234 5.48536C21.1758 4.93271 21.4537 4.4693 21.74 3.99204C21.8254 3.8495 21.9117 3.70573 21.9899 3.55797C22.2544 3.10412 22.5567 2.65091 23.048 2.34862C23.1615 1.89477 23.4639 1.51712 23.7657 1.13927C24.0675 0.770384 24.569 0.545675 24.9323 0.383345C25.26 0.237793 25.5952 0.10983 25.9365 0L0 0L0 19.9994L18.3682 19.9994C19.0877 19.4814 19.8063 19.2353 20.8106 18.7404C21.2853 18.5068 22.3703 18.0085 22.7378 17.6409ZM12.3154 12.0991C11.976 12.7794 11.5709 13.4249 11.1061 14.0265C11.11 14.0552 11.1233 14.0818 11.1439 14.1022C12.051 13.0817 12.8824 12.2125 14.0535 11.4944C14.0825 11.48 14.0726 11.4932 14.0579 11.5129C14.0343 11.5447 13.9981 11.5933 14.0913 11.57C14.5827 11.4566 14.7338 10.9653 14.9605 10.5874C15.2629 10.0962 15.792 9.90722 16.1699 9.49148C16.175 9.53303 16.1611 9.57469 16.1321 9.60483C16.1623 9.63387 16.204 9.64775 16.2455 9.64262C16.397 9.52926 16.5859 9.56705 16.6994 9.41591C16.386 9.29041 16.0389 9.27703 15.7167 9.37801C14.923 9.75598 14.2429 10.3607 13.6003 11.041C13.2146 11.4494 12.8067 11.8346 12.3154 12.0991ZM15.9812 14.2533L16.2836 14.2533C16.2623 14.296 16.2048 14.3025 16.1656 14.307C16.1354 14.3104 16.1161 14.3126 16.1325 14.3291C16.246 14.4422 16.4727 14.4045 16.6238 14.3289C16.7386 14.2643 16.8709 14.2378 17.0017 14.2533C17.0395 14.2533 17.0395 14.1777 17.0395 14.14C17.137 14.171 17.2395 14.1839 17.3417 14.1777C18.2488 13.9887 19.1181 13.7998 19.9495 13.384C18.9668 12.6282 17.7197 12.3637 16.5481 12.0235C16.5859 12.0235 16.6237 12.0361 16.6615 12.0487C16.7371 12.0739 16.8127 12.0991 16.8883 12.0235C16.6994 11.8724 16.4726 11.948 16.2836 11.8346C16.2921 11.8346 16.3025 11.8365 16.314 11.8386C16.3535 11.8459 16.4055 11.8554 16.4348 11.7968C16.1324 11.6457 15.8301 11.6457 15.5277 11.57C15.7088 11.5374 15.838 11.376 15.8301 11.1921C15.8301 11.1544 15.7545 11.1544 15.7167 11.1544C15.2632 11.3811 14.9608 11.7968 14.7719 12.2881C14.9407 12.3846 15.1248 12.3733 15.3047 12.3624C15.4068 12.3562 15.5076 12.35 15.6034 12.3637C15.4896 12.4771 15.3007 12.4771 15.1495 12.5149C15.0335 12.5438 14.9227 12.6282 14.9605 12.7038C14.9811 12.7324 15.0118 12.7519 15.0464 12.7585C14.9571 12.782 14.8755 12.8283 14.8094 12.8928C14.9176 12.9738 15.0257 12.9584 15.1337 12.9429C15.1769 12.9368 15.22 12.9306 15.2632 12.9306C15.2632 13.0062 15.3388 13.0062 15.3767 13.044C15.2115 13.1042 15.076 13.2261 14.9987 13.384C14.923 13.5731 14.7341 13.6486 14.6208 13.7998L14.6208 13.9131C14.2425 14.2533 13.8272 14.4801 13.5248 14.8958C13.5625 14.8958 13.5625 14.9336 13.5625 14.9713C13.487 15.0848 13.3358 15.1225 13.2979 15.2358C13.2979 15.2737 13.2979 15.3115 13.3358 15.3115C13.7894 15.1603 14.1294 14.8202 14.5452 14.6691C14.8476 14.5934 15.0743 14.4045 15.3388 14.3289C15.5277 14.2911 15.7545 14.2155 15.9435 14.1777C15.9435 14.2155 15.9435 14.2533 15.9812 14.2533ZM14.1672 11.759C14.1375 11.8265 14.0836 11.8804 14.0161 11.9102C13.9783 11.9102 13.9405 11.9102 13.9405 11.8724C13.9744 11.7137 14.0892 11.5845 14.2429 11.5322C14.2807 11.5321 14.2807 11.57 14.2807 11.6078C14.2429 11.6835 14.201 11.6914 14.1672 11.759ZM16.7372 14.8958C16.775 14.7068 17.0395 14.7068 17.191 14.6312C17.203 14.6252 17.216 14.6182 17.2296 14.6109C17.3017 14.5723 17.392 14.5239 17.4556 14.5556C17.5312 14.6691 17.6446 14.6312 17.7202 14.7068C17.4931 14.9336 17.1907 14.8202 16.9262 14.9336C16.9078 14.9336 16.885 14.9358 16.8615 14.9381C16.7883 14.9452 16.7086 14.953 16.7372 14.8958ZM25.018 15.1633L25.0965 15.1046C25.0965 15.1503 25.0614 15.1613 25.018 15.1633ZM15.3491 16.9644C15.2076 17.064 15.0667 17.1657 14.9176 17.2522C14.756 17.346 14.5868 17.4173 14.4191 17.497C14.4179 17.4937 14.4162 17.4906 14.4142 17.4878C14.3998 17.4676 14.3728 17.4611 14.3509 17.4726C14.2119 17.5518 14.0841 17.6492 13.9709 17.7622C13.9533 17.7789 13.9357 17.7959 13.9181 17.8131C13.8942 17.8366 13.8763 17.8544 13.8584 17.8724L13.8521 17.8787C13.851 17.8799 13.8508 17.881 13.8498 17.8822C13.8229 17.9089 13.7971 17.9359 13.7675 17.9706C13.7539 17.9909 13.7368 18.0088 13.7171 18.0233C13.6936 18.0389 13.6286 18.0386 13.6346 17.995L13.6346 17.9876C13.6124 17.9994 13.59 18.0112 13.5675 18.022C13.5464 18.0319 13.5277 18.0431 13.5085 18.0544C13.5002 18.0512 13.4913 18.0499 13.4824 18.0506C13.4726 18.0507 13.4631 18.0539 13.4552 18.0597C13.409 18.0959 13.3633 18.1345 13.3187 18.1749C13.2393 18.2464 13.1659 18.3244 13.0994 18.408L13.0886 18.422C13.0848 18.4269 13.081 18.4317 13.0773 18.4366C13.0737 18.4416 13.0692 18.4472 13.0653 18.4523C13.0642 18.4538 13.0628 18.4553 13.0616 18.4569C13.0527 18.4693 13.0445 18.482 13.036 18.4945C13.026 18.5049 13.0151 18.5101 13.0035 18.5117C12.9985 18.5041 12.9929 18.4968 12.9883 18.4891C12.9847 18.4832 12.9813 18.477 12.9777 18.4708C12.9662 18.4513 12.9555 18.4311 12.9454 18.4103C12.9413 18.4018 12.9382 18.3956 12.9354 18.3893C12.9763 18.3453 13.0158 18.2998 13.054 18.2532C13.0566 18.2502 13.0591 18.2471 13.0616 18.2441C13.0749 18.2279 13.0879 18.2118 13.1009 18.1956C13.122 18.1687 13.1431 18.1417 13.1642 18.1147C13.1719 18.1042 13.1797 18.0948 13.1873 18.0848C13.2288 18.0306 13.2685 17.978 13.3055 17.9252L13.3083 17.9211C13.3138 17.9132 13.3188 17.9052 13.3246 17.8973C13.3427 17.8706 13.3601 17.8436 13.3764 17.8161C13.3911 17.7914 13.4049 17.7663 13.4177 17.7407C13.4187 17.7388 13.4198 17.737 13.4208 17.7351L13.4247 17.7273C13.427 17.7226 13.4287 17.7178 13.4309 17.7132C13.4442 17.6847 13.4562 17.6554 13.4668 17.6251C13.468 17.6218 13.469 17.6186 13.4702 17.6153C13.473 17.607 13.476 17.5989 13.4786 17.5905C13.4829 17.5769 13.4868 17.5629 13.4905 17.5488C13.4912 17.5457 13.4917 17.5426 13.4926 17.5396C13.4971 17.5212 13.5021 17.5033 13.5057 17.4842C13.5073 17.4754 13.5057 17.4664 13.5011 17.4588C13.5437 17.3857 13.5939 17.3173 13.6509 17.2547C13.6453 17.2582 13.6391 17.2611 13.6336 17.2646C13.5795 17.2994 13.5437 17.348 13.4933 17.3857C13.4521 17.4164 13.3763 17.3655 13.425 17.329C13.4552 17.3049 13.4839 17.2789 13.5109 17.2511C13.5747 17.1765 13.639 17.1124 13.7078 17.0532C13.7513 17.0216 13.7889 16.995 13.8239 16.9645C13.8295 16.9596 13.8344 16.9546 13.8404 16.9494C13.8662 16.9157 13.8944 16.8839 13.9249 16.8544C13.9263 16.8532 13.9273 16.8518 13.9288 16.8507C14.2905 16.5016 14.8998 16.5171 15.3765 16.2945C15.4817 16.2524 15.5987 16.2689 15.7144 16.2853C15.8063 16.2984 15.8974 16.3113 15.981 16.2945C16.0996 16.2829 16.2187 16.3095 16.3212 16.3702C15.982 16.5549 15.6682 16.7636 15.3586 16.9578L15.3491 16.9644ZM15.9925 17.4389C16.023 17.4109 15.9899 17.39 15.9426 17.3804C15.9814 17.3509 16.0131 17.3133 16.0356 17.2701C16.0665 17.1959 15.8667 17.2137 15.8356 17.2353C15.8051 17.2596 15.7778 17.2878 15.7544 17.319C15.705 17.3722 15.6525 17.4224 15.5973 17.4695C15.5026 17.5562 15.4137 17.649 15.3179 17.7334C15.2543 17.7893 15.4621 17.8186 15.5069 17.7788C15.5552 17.736 15.6017 17.6914 15.6479 17.6466C15.6675 17.6458 15.687 17.6432 15.7061 17.6387C15.8147 17.5933 15.9124 17.5252 15.9925 17.4389ZM17.7243 17.5846C17.7296 17.5808 17.7351 17.5758 17.74 17.5722C17.7947 17.5336 17.8455 17.4842 17.891 17.4252C17.885 17.4233 17.879 17.4209 17.8732 17.4179C17.8228 17.4695 17.7738 17.525 17.7243 17.5846Z" id="Tracé_1657" fill="#000091" fill-rule="evenodd" stroke="none" />
      <path d="M24.2859 0L2.77229 0C2.84386 0.0235497 2.9124 0.0554325 2.97652 0.0949918C3.1512 0.188717 3.3776 0.309568 3.51924 0.383873C3.80922 0.517351 4.05809 0.726164 4.23991 0.988548C4.31549 1.10191 4.42884 1.32872 4.35327 1.47987C4.2777 1.6688 4.23991 1.97119 4.05099 2.04676C3.82417 2.16011 3.52178 2.16011 3.25728 2.12233C3.10349 2.11566 2.95108 2.09029 2.80343 2.04676C3.37021 2.27347 3.89932 2.53808 4.27728 3.06718C4.31506 3.14275 4.46621 3.18054 4.61745 3.18054C4.65524 3.18054 4.65524 3.25611 4.65524 3.29389C4.57956 3.36957 4.50399 3.40725 4.54178 3.52061L4.65524 3.52061C4.84417 3.44504 4.80638 3.06676 5.07099 3.18054C5.26383 3.29944 5.33018 3.5483 5.22213 3.74743C5.08036 3.88438 4.92866 4.01068 4.76828 4.12528C4.7305 4.20944 4.7305 4.30573 4.76828 4.38989C4.86286 4.52599 4.92727 4.68073 4.95721 4.84374C5.07067 5.10824 5.10835 5.41063 5.22181 5.67513C5.37296 6.24202 5.5241 6.80891 5.48631 7.3758C5.48631 7.67819 5.33507 7.94269 5.44853 8.24508C5.5241 8.54736 5.71303 8.77418 5.86428 9.03868C6.01531 9.2654 6.16656 9.41665 6.28002 9.64336C6.50663 10.0213 6.92238 10.3992 6.73387 10.8527C6.62052 11.1172 6.20477 11.0795 5.94027 11.2307C5.71345 11.4196 5.90248 11.7219 6.01573 11.9109C6.20477 12.2511 5.78902 12.4778 5.52452 12.5912C5.60009 12.7045 5.75124 12.6667 5.78902 12.7423C5.82681 12.9313 6.01573 13.0447 5.90248 13.2336C5.75124 13.4604 5.29781 13.5738 5.52452 13.9139C5.67566 14.1785 5.57729 14.4723 5.48674 14.7454C5.37338 15.0855 5.07109 15.2366 4.80649 15.3123C4.57356 15.3812 4.32765 15.3941 4.08877 15.35C4.01983 15.3082 3.94234 15.2823 3.86206 15.2745C3.21949 15.1988 2.57703 15.0099 1.93457 15.0099C1.7525 15.0376 1.5747 15.0884 1.40546 15.161C1.24093 15.2817 1.08778 15.4171 0.947921 15.5657L0.943488 15.5704C0.915095 15.6006 0.887865 15.6312 0.861056 15.662C0.84459 15.6811 0.828442 15.7006 0.812399 15.72C0.801492 15.7329 0.790762 15.7459 0.780207 15.759C0.670485 15.8967 0.571038 16.0423 0.482672 16.1946C0.477078 16.2042 0.471378 16.2138 0.465995 16.2235C0.456074 16.241 0.446469 16.2587 0.436759 16.2763C0.317836 16.497 0.221952 16.7293 0.150622 16.9697C-0.106278 17.8351 0.00602373 18.5777 0.186403 18.7579C0.236537 18.8081 1.43375 19.1777 2.26767 19.5487C2.57529 19.6779 2.87336 19.8287 3.15965 20L24.2859 20L24.2859 0Z" transform="translate(30.71331 2.842171E-14)" id="Tracé_1658" fill="#E1000F" fill-rule="evenodd" stroke="none" />
      <path d="M1.47353 0.372406C1.62478 0.410192 1.85139 0.410192 1.85139 0.485763C1.77592 0.788048 1.32218 0.863619 1.09547 1.16612L0.982426 1.16612C0.869069 1.24169 0.906855 1.43061 0.793498 1.43061C0.679068 1.40552 0.559558 1.4188 0.453428 1.4684C0.60457 1.61954 0.793498 1.73311 1.02021 1.69511C1.08535 1.7177 1.13022 1.77761 1.13357 1.84647C1.16263 1.8437 1.18962 1.83019 1.20925 1.80858C1.24714 1.80858 1.28492 1.80858 1.28492 1.84647L1.28492 1.99761C1.17135 2.14875 0.982426 2.07308 0.831073 2.11097C1.11586 2.18662 1.41546 2.18662 1.70025 2.11097C1.92707 2.0354 1.70025 1.65712 1.8515 1.4684C1.77603 1.4684 1.8515 1.35504 1.77603 1.35504C1.8515 1.27947 1.92707 1.16612 2.00274 1.12833C2.09252 1.13072 2.17756 1.08816 2.22946 1.01487C2.22946 0.939402 2.07842 0.901616 2.1161 0.825833C2.34281 0.674902 2.53174 0.447977 2.45628 0.221263C2.41839 0.107907 2.1161 0.107907 1.92707 0.0323352C1.73803 -0.043236 1.51132 0.0323352 1.28471 0.0701209C1.09557 0.0701209 0.906644 0.183478 0.717716 0.221263C0.460297 0.309159 0.218152 0.436641 0 0.59912C0.270613 0.501298 0.548681 0.425481 0.831495 0.372406C1.05789 0.372406 1.25041 0.316572 1.47353 0.372406Z" transform="translate(33.291607 6.9235992)" id="Tracé_1659" fill="#808080" fill-rule="evenodd" stroke="none" />
    </g>
  </g>
</svg>